<svg xmlns="http://www.w3.org/2000/svg" viewBox="0 0 1200 840">
  <rect width="1200" height="840" rx="36" fill="#f4f8ff"/>
  <rect x="32" y="32" width="1136" height="776" rx="28" fill="none" stroke="#decdb7" stroke-width="4"/>
  <text x="100" y="150" fill="#8c7f72" font-family="Georgia, serif" font-size="34">Professional Certification</text>
  <text x="100" y="260" fill="#2e2b24" font-family="Georgia, serif" font-size="78" font-weight="700">Cloud Engineering</text>
  <text x="100" y="338" fill="#6c6257" font-family="Arial, sans-serif" font-size="34">Awarded to Mmah Zombo for applied cloud infrastructure and deployment expertise.</text>
  <rect x="100" y="420" width="1000" height="180" rx="28" fill="#dfeefe"/>
  <text x="140" y="500" fill="#2e2b24" font-family="Arial, sans-serif" font-size="42" font-weight="700">Credential Focus</text>
  <text x="140" y="560" fill="#6c6257" font-family="Arial, sans-serif" font-size="30">Cloud-native workflows, scalable operations, and deployment strategy.</text>
  <path d="M940 202c0-48 36-82 84-82 40 0 72 24 84 60 46 2 82 34 82 78 0 43-36 72-86 72H970c-42 0-74-28-74-64 0-33 18-56 44-64z" transform="translate(-56 -34) scale(.72)" fill="#8fc7f2"/>
</svg>
