<svg xmlns="http://www.w3.org/2000/svg" viewBox="0 0 1200 840">
  <rect width="1200" height="840" rx="36" fill="#fff8ee"/>
  <rect x="32" y="32" width="1136" height="776" rx="28" fill="none" stroke="#decdb7" stroke-width="4"/>
  <text x="100" y="150" fill="#8c7f72" font-family="Georgia, serif" font-size="34">Professional Education</text>
  <text x="100" y="260" fill="#2e2b24" font-family="Georgia, serif" font-size="72" font-weight="700">Software Engineering Nanodegree</text>
  <text x="100" y="338" fill="#6c6257" font-family="Arial, sans-serif" font-size="34">ALX Africa · 2022 - 2023</text>
  <rect x="100" y="420" width="1000" height="180" rx="28" fill="#f3e7d3"/>
  <text x="140" y="500" fill="#2e2b24" font-family="Arial, sans-serif" font-size="42" font-weight="700">Key Outcome</text>
  <text x="140" y="560" fill="#6c6257" font-family="Arial, sans-serif" font-size="30">Backend and full-stack engineering training including the Climate Call application.</text>
  <circle cx="1010" cy="180" r="72" fill="#8fc7f2"/>
  <path d="M974 190c0-26 18-46 44-46 18 0 34 11 40 27 18 2 32 16 32 34 0 20-16 36-36 36h-70c-20 0-36-16-36-36 0-8 2-14 6-20 6-8 12-12 20-15z" fill="none" stroke="#2e2b24" stroke-width="12" stroke-linejoin="round"/>
</svg>
